<svg width="56" height="56" viewBox="0 0 56 56" fill="none" xmlns="http://www.w3.org/2000/svg">
<path d="M28 4.66663C15.12 4.66663 4.66669 15.12 4.66669 28C4.66669 40.88 15.12 51.3333 28 51.3333C40.88 51.3333 51.3334 40.88 51.3334 28C51.3334 15.12 40.88 4.66663 28 4.66663ZM28 46.6666C17.71 46.6666 9.33335 38.29 9.33335 28C9.33335 17.71 17.71 9.33329 28 9.33329C38.29 9.33329 46.6667 17.71 46.6667 28C46.6667 38.29 38.29 46.6666 28 46.6666ZM38.71 17.6866L23.3334 33.0633L17.29 27.0433L14 30.3333L23.3334 39.6666L42 21L38.71 17.6866Z" fill="#303A52" fill-opacity="0.8"/>
</svg>
